<svg width="100%" height="100%" viewBox="0 0 370 132" xmlns="http://www.w3.org/2000/svg"><path d="M292 41.812c0 14.218 1.548 24.146 6.095 31.02C302.915 80.086 311.033 84 321.755 84c10.922 0 19.225-3.914 24.059-11.168 4.446-6.874 5.99-16.993 6.186-31.212 0-14.033-1.548-23.582-6.088-30.452C341.078 3.914 332.967 0 322.049 0c-10.824 0-19.135 3.914-23.954 11.168-4.547 6.87-6.095 16.419-6.095 30.644Zm17-.314c0-13.511.96-19.604 3.167-23.697 2.207-4.09 5.767-5.801 10.38-5.801 4.71 0 8.17 1.805 10.384 5.801C335.138 21.894 336 27.987 336 41.498c0 13.515-.862 19.604-3.07 23.697-2.12 3.996-5.673 5.805-10.383 5.805-4.613 0-8.173-1.712-10.38-5.805C309.959 61.102 309 55.013 309 41.498ZM281.564 0l-15.452 65.233L251.075 0H234l21.957 84h17.784L296 0h-14.436ZM189 0v84h43V71.3h-26.997V46.883h21V34.187h-21V13.673H230V0h-41Zm-19.003 0v53.823L143 .203V0H127v84h14V29.622L169.494 84H184V0h-14.003Zm-62 0v53.934L80.802 0H65v84h14V29.078L107.461 84H122V0h-14.003ZM21.594 0 0 84h14.259l4.408-18.775h22.161L45.14 84H62L40.604 0h-19.01ZM29.7 19 38 55H21l8.7-36Zm331.25 65c-5.448 0-8.95-3.66-8.95-9.45 0-5.794 3.502-9.55 8.95-9.55 5.35 0 9.05 3.756 9.05 9.55 0 5.79-3.7 9.45-9.05 9.45ZM55 132v-10h260v10H55Z" fill="#FFF" fill-rule="nonzero"/></svg>