<svg xmlns="http://www.w3.org/2000/svg" width="100%" height="100%" viewBox="0 0 32 32"><path fill="#FFF" fill-rule="nonzero" d="M10.25 8.667a5.005 5.005 0 0 0-4.281 2.437l-1.594 2.688-2.094.53A3.014 3.014 0 0 0 0 17.23v4.438c0 1.093.906 2 2 2h1.156c.446 1.718 1.992 3 3.844 3 1.852 0 3.398-1.282 3.844-3h10.312c.446 1.718 1.992 3 3.844 3 1.852 0 3.398-1.282 3.844-3H30c1.094 0 2-.907 2-2v-3.438a3.01 3.01 0 0 0-2.281-2.906l-6.094-1.531-1.594-2.688a5.005 5.005 0 0 0-4.281-2.437h-7.5Zm0 2H13v3H6.75l.938-1.532a2.99 2.99 0 0 1 2.562-1.468Zm4.75 0h2.75a2.99 2.99 0 0 1 2.563 1.468l.937 1.532H15v-3Zm-9.875 5h17.75l6.375 1.593c.45.114.75.504.75.97v3.437h-1.156c-.446-1.72-1.992-3-3.844-3-1.852 0-3.398 1.28-3.844 3H10.844c-.446-1.72-1.992-3-3.844-3-1.852 0-3.398 1.28-3.844 3H2v-4.438c0-.465.3-.855.75-.969l2.375-.593Zm1.875 5c1.117 0 2 .882 2 2 0 1.117-.883 2-2 2s-2-.883-2-2c0-1.118.883-2 2-2Zm18 0c1.117 0 2 .882 2 2 0 1.117-.883 2-2 2s-2-.883-2-2c0-1.118.883-2 2-2Z"/></svg>