<svg xmlns="http://www.w3.org/2000/svg" width="100%" height="100%" viewBox="0 0 1457 323"><g fill="#fff" fill-rule="evenodd"><path d="M210.065 311.182 95.118 0H0v322.981h48.175V11.901l114.909 311.08h95.156V0h-48.175v311.182M877.184 0l-84.875 119.052L707.434 0h-60.571l115.161 161.533-115.1 161.448h60.571l84.814-118.967 84.814 118.967h60.572l-115.1-161.448L937.755 0h-60.571"/><path d="M595.908 0h-60.571l115.16 161.533-115.1 161.448h60.572l115.1-161.448L595.908 0M306.142 322.981h212.325V276.92H354.555v-92.399h154.644V138.46H354.555V46.2h163.912V0H306.142v322.981M954.661 322.981h212.329V276.92h-163.92v-92.399h154.65V138.46h-154.65V46.2h163.92V0H954.661v322.981M1255.22 138.46V46.2h94.1c31.8 0 55.55 16.881 55.55 46.326 0 29.444-23.75 45.934-55.55 45.934h-94.1Zm103.33 45.934c53.47-2.661 94.95-36.407 94.95-92.101C1453.5 33.797 1408.43 0 1351.67 0h-144.62v322.982h48.17V184.585h42.87l98.49 138.397h60.59l-98.62-138.588Z"/></g></svg>